<?xml version="1.0" encoding="UTF-8"?>
<svg width="1270px" height="872px" viewBox="0 0 1270 872" version="1.1" xmlns="http://www.w3.org/2000/svg" xmlns:xlink="http://www.w3.org/1999/xlink">
    <title>line_1</title>
    <g id="Page-1" stroke="none" stroke-width="1" fill="none" fill-rule="evenodd">
        <g id="line_1" transform="translate(3.264600, 3.428224)" stroke="#000000" stroke-width="6">
            <path d="M591.7174,688.566776 C581.4724,751.511776 377.0414,809.406776 343.9634,789.744776 C338.5224,786.510776 341.9334,776.778776 343.8804,770.755776 C351.7524,746.392776 361.8224,738.943776 385.8604,731.337776 C421.6914,719.999776 476.4314,764.174776 479.2874,799.796776 C479.8984,807.427776 604.8964,757.847776 652.7354,779.571776 C686.1394,794.740776 697.7354,848.571776 644.7354,863.571776 C591.7354,878.571776 314.6704,734.201776 310.7354,729.571776 C296.2264,712.494776 249.4554,664.224776 243.7354,645.571776 C242.3014,640.895776 125.1074,594.355776 122.9804,566.010776 C118.2284,502.674776 175.7464,506.947776 218.8744,508.416776 C230.5994,508.816776 237.4604,522.892776 250.0644,523.460776 C272.7084,524.480776 295.6694,506.528776 310.7654,491.632776 C323.6364,478.932776 343.5594,461.622776 340.5314,441.054776 C333.5714,393.767776 285.4954,373.959776 243.9294,362.224776 C183.6284,345.198776 118.1464,349.573776 62.6344,379.563776 C38.7294,392.477776 13.0504,410.381776 3.24240004,436.943776 C-10.2736,473.550776 20.6924,499.268776 54.9544,484.011776 C97.7184,464.968776 136.1164,434.261776 165.2544,397.596776 C184.4504,373.440776 202.9154,345.457776 207.0114,314.016776 C211.1714,282.086776 198.1784,250.499776 202.5454,219.023776 C211.6054,153.713776 493.0784,85.5227758 513.0524,116.596776 C533.3744,148.211776 537.7794,159.955776 541.9464,192.730776 C546.5124,228.642776 537.1724,263.164776 504.3274,282.525776 C490.6324,290.597776 466.3854,307.660776 447.4054,299.131776 C404.6714,279.931776 395.6004,216.878776 402.5664,176.631776 C406.1364,156.005776 416.3574,133.517776 430.3804,117.866776 C454.8344,90.5727758 539.3384,21.1897758 560.7354,52.5717758 C575.7354,74.5717758 549.5754,135.977776 591.7354,176.571776 C640.6144,223.635776 760.1974,238.732776 760.1504,249.514776 C760.0774,266.309776 757.2044,327.666776 751.6404,345.782776 C737.5744,391.587776 673.9124,382.305776 644.6634,358.570776 C604.4884,325.968776 579.0314,273.318776 590.8234,221.342776 C594.8434,203.629776 611.2744,185.287776 622.2974,173.445776 C649.1114,144.636776 685.1764,122.219776 719.2034,103.009776 C736.7314,93.1137758 754.5344,83.6947758 772.5274,74.6717758 C784.6634,68.5857758 797.0574,63.0117758 809.5524,57.7017758 C828.4164,49.6857758 847.3514,41.8047758 866.5784,34.7067758 C879.6434,29.8847758 892.8824,25.4417758 906.3684,21.9637758 C926.5394,16.7637758 946.9194,12.2947758 967.4384,8.70177578 C982.5734,6.05177578 997.8884,4.39377578 1013.2104,3.25177578 C1034.9294,1.63477578 1056.7104,0.807775776 1078.4854,0.427775776 C1110.1624,-0.124224224 1141.8554,-0.170224224 1173.5304,0.455775776 C1204.2734,1.06377578 1234.9784,2.90577578 1265.7034,4.13077578" id="Path"></path>
        </g>
    </g>
</svg>