<?xml version="1.0" encoding="UTF-8"?>
<svg width="871px" height="832px" viewBox="0 0 871 832" version="1.1" xmlns="http://www.w3.org/2000/svg" xmlns:xlink="http://www.w3.org/1999/xlink">
    <title>line_2</title>
    <g id="Page-1" stroke="none" stroke-width="1" fill="none" fill-rule="evenodd">
        <g id="line_2" transform="translate(1.967000, 4.400446)" stroke="#000000" stroke-width="7">
            <path d="M638.033,102.599554 C682.786,64.5075541 755.891,8.24255408 817.033,0.599554084 C881.033,-7.40044592 871.067,66.8525541 841.763,92.5655541 C813.456,117.405554 761.889,123.295554 729.049,130.225554 C679.933,140.589554 650.329,141.945554 607.317,157.851554 C556.074,176.801554 382.033,272.599554 342.033,300.599554 C302.033,328.599554 252.033,386.599554 277.033,408.599554 C302.033,430.599554 363.033,415.599554 421.033,415.599554 C479.033,415.599554 574.681,424.929554 631.753,441.273554 C645.375,445.173554 652.913,448.717554 664.291,456.712554 C672.54,462.508554 678.006,471.838554 678.402,482.091554 C680.087,525.738554 650.549,551.826554 616.255,573.390554 C590.095,589.840554 563.702,605.994554 536.483,620.627554 C522.431,628.181554 398.337,681.995554 286.033,726.599554 C213.843,755.271554 146.073,778.512554 117.033,788.599554 C74.005,803.545554 43.663,810.340554 0,823.315554" id="Path"></path>
        </g>
    </g>
</svg>