<?xml version="1.0" encoding="UTF-8"?>
<svg width="1610px" height="560px" viewBox="0 0 1610 560" version="1.1" xmlns="http://www.w3.org/2000/svg" xmlns:xlink="http://www.w3.org/1999/xlink">
    <title>line_4</title>
    <g id="Page-1" stroke="none" stroke-width="1" fill="none" fill-rule="evenodd">
        <g id="line_4" transform="translate(1.000000, 3.000224)" stroke="#000000" stroke-width="6">
            <path d="M0,532.999776 C35.83,521.662776 179.976,397.716776 241,379.999776 C303,361.999776 386,419.999776 386,513.999776 C386,607.999776 638.669,506.529776 653.765,491.632776 C666.636,478.932776 686.559,461.622776 683.531,441.054776 C676.571,393.767776 628.495,373.959776 586.929,362.224776 C526.628,345.198776 461.146,349.573776 405.634,379.563776 C381.729,392.477776 356.05,410.381776 346.242,436.943776 C332.726,473.550776 363.692,499.268776 397.954,484.011776 C440.718,464.968776 479.116,434.261776 508.254,397.596776 C527.45,373.440776 545.915,345.457776 550.011,314.016776 C554.171,282.086776 541.178,250.499776 545.545,219.023776 C554.605,153.713776 836.078,85.5227758 856.052,116.596776 C876.374,148.211776 880.779,159.955776 884.946,192.730776 C889.512,228.642776 880.172,263.164776 847.327,282.525776 C833.632,290.597776 809.385,307.660776 790.405,299.131776 C747.671,279.931776 738.6,216.878776 745.566,176.631776 C749.136,156.005776 759.357,133.517776 773.38,117.866776 C797.834,90.5727758 882.338,21.1897758 903.735,52.5717758 C918.735,74.5717758 892.575,135.977776 934.735,176.571776 C983.614,223.635776 1103.197,238.732776 1103.15,249.514776 C1103.077,266.309776 1100.204,327.666776 1094.64,345.782776 C1080.574,391.587776 1016.912,382.305776 987.663,358.570776 C947.488,325.968776 922.031,273.318776 933.823,221.342776 C937.843,203.629776 954.274,185.287776 965.297,173.445776 C992.111,144.636776 1028.176,122.219776 1062.203,103.009776 C1079.731,93.1137758 1097.534,83.6947758 1115.527,74.6717758 C1127.663,68.5857758 1140.057,63.0117758 1152.552,57.7017758 C1171.416,49.6857758 1190.351,41.8047758 1209.578,34.7067758 C1222.643,29.8847758 1235.882,25.4417758 1249.368,21.9637758 C1269.539,16.7637758 1289.919,12.2947758 1310.438,8.70177578 C1325.573,6.05177578 1340.888,4.39377578 1356.21,3.25177578 C1377.929,1.63477578 1399.71,0.807775776 1421.485,0.427775776 C1453.162,-0.124224224 1484.855,-0.170224224 1516.53,0.455775776 C1547.273,1.06377578 1577.978,2.90577578 1608.703,4.13077578" id="Path"></path>
        </g>
    </g>
</svg>