<?xml version="1.0" encoding="UTF-8"?>
<svg width="1482px" height="842px" viewBox="0 0 1482 842" version="1.1" xmlns="http://www.w3.org/2000/svg" xmlns:xlink="http://www.w3.org/1999/xlink">
    <title>line_3</title>
    <g id="Page-1" stroke="none" stroke-width="1" fill="none" fill-rule="evenodd">
        <g id="line_3" transform="translate(3.767388, 4.000000)" stroke="#000000" stroke-width="7">
            <path d="M1477.23261,0 C1124.23261,26 848.142612,166.24 815.482612,189.338 C759.950612,228.611 744.812612,254.463 685.676612,312.128 C628.471612,367.91 572.934612,415.375 523.398612,477.428 C499.503612,507.36 477.031612,538.41 453.155612,568.357 C423.475612,605.582 394.305612,643.28 362.745612,678.925 C297.719612,752.368 272.146612,770.335 182.232612,810 C159.387612,820.078 97.3196124,837.554 67.9186124,832.69 C-8.76738764,820 -27.6573876,730.273 48.4896124,711.213 C106.694612,696.644 169.452612,717.211 226.864612,720.988 C269.368612,723.784 312.034612,723.066 354.628612,723.4 C462.632612,724.247 570.644612,725.328 678.648612,724.53 C751.787612,723.99 905.918612,713.678 966.908612,708.158 C1014.73061,703.83 1083.91561,695.031 1129.66461,676.682 C1154.35961,666.776 1161.52561,651.209 1186.47861,630.825 C1201.38861,618.646 1217.67861,608.243 1232.75761,596.273 C1281.87861,557.279 1377.23361,482.999 1344.54861,426.507 C1333.66961,407.703 1307.78861,405.399 1292.08461,405.522 C1271.12861,405.687 1250.24361,408.116 1229.38061,410.105 C1196.36561,413.253 1134.23461,429.73 1143.43361,476.039 C1149.60061,507.086 1175.62661,531.837 1200.75861,548.736" id="Path"></path>
        </g>
    </g>
</svg>