<?xml version="1.0" encoding="UTF-8"?>
<svg width="792px" height="827px" viewBox="0 0 792 827" version="1.1" xmlns="http://www.w3.org/2000/svg" xmlns:xlink="http://www.w3.org/1999/xlink">
    <title>Path 37</title>
    <g id="Page-1" stroke="none" stroke-width="1" fill="none" fill-rule="evenodd">
        <g id="05_Index_Dark" transform="translate(-808.000000, -191.000000)" stroke="#000000" stroke-width="6">
            <g id="Banner" transform="translate(185.000000, 149.428323)">
                <g id="Shape" transform="translate(626.265148, 0.000000)">
                    <path d="M591.717035,688.566805 C581.471968,751.51189 377.040648,809.407356 343.962635,789.744895 C338.521742,786.510681 341.933425,776.779344 343.879505,770.756369 C351.751675,746.392577 361.82185,738.943668 385.860828,731.337546 C421.691336,720.000491 476.430977,764.175036 479.286609,799.797019 C479.898368,807.428273 604.895667,757.848043 652.734852,779.571677 C686.139253,794.740518 697.734852,848.571677 644.734852,863.571677 C591.734852,878.571677 314.669698,734.202908 310.734852,729.571677 C296.22625,712.495359 249.455839,664.225277 243.734852,645.571677 C242.300811,640.895907 125.10712,594.356354 122.980213,566.010886 C118.227794,502.675013 175.745793,506.947698 218.874012,508.416831 C230.599122,508.816238 237.459615,522.893423 250.063709,523.461203 C272.707859,524.481262 295.668846,506.529338 310.765125,491.6332 C323.636139,478.932826 343.558547,461.622778 340.531238,441.054953 C333.57119,393.767722 285.494571,373.95969 243.929187,362.224204 C183.627615,345.19878 118.146048,349.573577 62.6335332,379.563864 C38.7286225,392.478342 13.0497412,410.381581 3.24241989,436.94393 C-10.2735673,473.550906 20.6920994,499.269074 54.9538457,484.012229 C97.7182897,464.96911 136.116385,434.261063 165.253895,397.596518 C184.450225,373.441238 202.915082,345.458108 207.010853,314.016867 C211.170182,282.087718 198.178343,250.499662 202.544666,219.023703 C211.604455,153.713481 493.07754,85.5230083 513.051624,116.597098 C533.373635,148.212465 537.778904,159.956016 541.946033,192.730613 C546.512157,228.643318 537.172175,263.165023 504.327259,282.525779 C490.632425,290.598332 466.384546,307.660635 447.404773,299.132468 C404.671371,279.931101 395.59978,216.879482 402.566028,176.631614 C406.135971,156.006081 416.357356,133.517814 430.380237,117.866599 C454.834478,90.5727364 539.338167,21.1898732 560.734852,52.571677 C575.734852,74.571677 549.575736,135.977921 591.734852,176.571677 C640.613594,223.635561 760.197132,238.733295 760.150135,249.515036 C760.076927,266.30983 757.203889,327.66728 751.640613,345.782981 C737.57397,391.588209 673.911527,382.305764 644.66283,358.570578 C604.488059,325.968934 579.031132,273.31858 590.823475,221.343406 C594.842404,203.629831 611.274448,185.287795 622.296863,173.445517 C649.110506,144.637437 685.175946,122.220314 719.202625,103.009848 C736.730978,93.113854 754.533969,83.6947959 772.52721,74.6716526 C784.662996,68.5858711 797.05725,63.0112351 809.552234,57.701865 C828.415711,49.6863944 847.350547,41.8049805 866.578235,34.7074802 C879.643359,29.8847621 892.882163,25.441554 906.367908,21.9643772 C926.539381,16.7633461 946.919074,12.295275 967.437977,8.70171239 C982.572683,6.05110698 997.887357,4.39426627 1013.20995,3.25267675 C1034.92858,1.63455901 1056.70983,0.808123184 1078.48534,0.428274891 C1110.16217,-0.124290278 1141.85481,-0.170422269 1173.53026,0.456076405 C1204.27278,1.06412299 1234.9785,2.90614965 1265.70262,4.13118627" id="Path-37"></path>
                </g>
            </g>
        </g>
    </g>
</svg>