<?xml version="1.0" encoding="UTF-8"?>
<svg width="628px" height="766px" viewBox="0 0 628 766" version="1.1" xmlns="http://www.w3.org/2000/svg" xmlns:xlink="http://www.w3.org/1999/xlink">
    <title>Group 10</title>
    <defs>
        <circle id="path-1" cx="42" cy="42" r="42"></circle>
        <circle id="path-3" cx="35.5" cy="35.5" r="35.5"></circle>
        <circle id="path-5" cx="42" cy="42" r="42"></circle>
        <circle id="path-7" cx="39" cy="39" r="39"></circle>
        <circle id="path-9" cx="35.5" cy="35.5" r="35.5"></circle>
        <circle id="path-11" cx="42" cy="42" r="42"></circle>
        <circle id="path-13" cx="39" cy="39" r="39"></circle>
    </defs>
    <g id="Page-1" stroke="none" stroke-width="1" fill="none" fill-rule="evenodd">
        <g id="Group-10" transform="translate(0.000000, 0.984420)">
            <g id="Financial_money-bag" transform="translate(0.000000, 382.015580)">
                <path d="M294.4,291.087807 C294.4,165.287807 176.6,77.2878067 176.6,77.2878067 L150.8,77.2878067 L125.1,77.2878067 C125.1,77.2878067 7.3,157.287807 7.3,291.087807 C7.3,361.187807 79.1,374.587807 150.9,374.587807 C222.6,374.587807 294.4,361.287807 294.4,291.087807 Z" id="Path" fill="#E29460" fill-rule="nonzero"></path>
                <path d="M176.5,77.2878067 L213.4,7.18780674 L182,18.9878067 C175.6,21.3878067 168.4,20.3878067 162.9,16.2878067 L162.9,16.2878067 C155.8,10.8878067 145.9,10.8878067 138.8,16.2878067 L138.8,16.2878067 C133.3,20.3878067 126.1,21.4878067 119.7,18.9878067 L88.3,7.18780674 L125.2,77.2878067" id="Path" fill="#E29460" fill-rule="nonzero"></path>
                <path d="M151.1,381.787807 C151,381.787807 150.9,381.787807 150.8,381.787807 C106.5,381.787807 73.2,376.487807 49.1,365.687807 C16.5,350.987807 0,325.887807 0,291.087807 C0,219.887807 32.9,163.987807 60.5,129.587807 C90.3,92.4878067 119.7,72.2878067 121,71.3878067 C122.2,70.5878067 123.6,70.1878067 125,70.1878067 L176.5,70.1878067 C178.1,70.1878067 179.6,70.6878067 180.8,71.5878067 C182,72.4878067 211.4,94.5878067 241.1,132.687807 C268.7,167.987807 301.5,224.187807 301.5,291.187807 C301.5,326.087807 285,351.187807 252.4,365.887807 C228.4,376.487807 195.3,381.787807 151.1,381.787807 Z M127.4,84.4878067 C120.7,89.3878067 96,108.287807 71.5,138.887807 C45.5,171.387807 14.5,224.287807 14.5,291.087807 C14.5,320.187807 27.8,340.287807 55.1,352.587807 C77.3,362.587807 108.6,367.387807 150.8,367.487807 C193.1,367.487807 224.4,362.687807 246.5,352.687807 C273.8,340.387807 287.1,320.287807 287.1,291.187807 C287.1,228.287807 255.9,175.087807 229.7,141.587807 C205.3,110.387807 180.8,89.9878067 174,84.5878067 L127.4,84.5878067 L127.4,84.4878067 Z" id="Shape" fill="#3A2F49" fill-rule="nonzero"></path>
                <path d="M125.1,84.4878067 C122.5,84.4878067 120,83.0878067 118.7,80.5878067 L81.8,10.5878067 C80.4,7.98780674 80.8,4.68780674 82.8,2.48780674 C84.8,0.287806741 87.9,-0.512193259 90.7,0.487806741 L122.1,12.2878067 C126.2,13.8878067 130.8,13.1878067 134.4,10.4878067 C144.1,3.28780674 157.5,3.28780674 167.2,10.4878067 C170.7,13.1878067 175.3,13.7878067 179.5,12.2878067 L210.8,0.487806741 C213.6,-0.612193259 216.8,0.187806741 218.7,2.48780674 C220.7,4.68780674 221.1,7.98780674 219.7,10.5878067 L182.8,80.6878067 C180.9,84.1878067 176.6,85.5878067 173.1,83.6878067 C169.6,81.8878067 168.2,77.4878067 170.1,73.9878067 L198.1,20.5878067 L184.4,25.6878067 C175.6,28.9878067 165.9,27.5878067 158.4,21.9878067 C153.8,18.5878067 147.5,18.5878067 142.9,21.9878067 C135.4,27.5878067 125.7,28.9878067 116.9,25.6878067 L103.2,20.5878067 L131.2,73.9878067 C133,77.4878067 131.7,81.8878067 128.2,83.6878067 C127.4,84.2878067 126.2,84.4878067 125.1,84.4878067 Z" id="Path" fill="#3A2F49" fill-rule="nonzero"></path>
                <circle id="Oval" fill="#FFBB2E" fill-rule="nonzero" cx="150.8" cy="240.987807" r="73.3"></circle>
                <g id="Group-2" transform="translate(109.000000, 199.000000)">
                    <mask id="mask-2" fill="white">
                        <use xlink:href="#path-1"></use>
                    </mask>
                    <use id="Mask" stroke="#000000" stroke-width="3" fill="#FFBB2E" xlink:href="#path-1"></use>
                    <g mask="url(#mask-2)" id="Oval" stroke="#3A2F49" stroke-width="13">
                        <circle cx="42" cy="42" r="35.5"></circle>
                        <circle cx="29" cy="55" r="29"></circle>
                        <circle cx="21" cy="65" r="18"></circle>
                    </g>
                </g>
                <path d="M150.8,321.487807 C106.4,321.487807 70.3,285.387807 70.3,240.987807 C70.3,196.587807 106.4,160.487807 150.8,160.487807 C195.2,160.487807 231.3,196.587807 231.3,240.987807 C231.3,285.387807 195.2,321.487807 150.8,321.487807 Z M150.8,174.887807 C114.4,174.887807 84.7,204.487807 84.7,240.987807 C84.7,277.387807 114.3,307.087807 150.8,307.087807 C187.3,307.087807 216.9,277.487807 216.9,240.987807 C216.9,204.587807 187.2,174.887807 150.8,174.887807 Z" id="Shape" fill="#3A2F49" fill-rule="nonzero"></path>
                <path d="M191.9,84.4878067 L109.8,84.4878067 C105.8,84.4878067 102.6,81.2878067 102.6,77.2878067 C102.6,73.2878067 105.8,70.0878067 109.8,70.0878067 L191.9,70.0878067 C195.9,70.0878067 199.1,73.2878067 199.1,77.2878067 C199.1,81.2878067 195.8,84.4878067 191.9,84.4878067 Z" id="Path" fill="#3A2F49" fill-rule="nonzero"></path>
                <path d="M179.8,138.587807 C175.8,138.587807 172.6,135.387807 172.6,131.387807 L172.6,77.2878067 C172.6,73.2878067 175.8,70.0878067 179.8,70.0878067 C183.8,70.0878067 187,73.2878067 187,77.2878067 L187,131.387807 C187,135.387807 183.7,138.587807 179.8,138.587807 Z" id="Path" fill="#3A2F49" fill-rule="nonzero"></path>
            </g>
            <g id="Group-7" transform="translate(195.500000, 314.015580)">
                <g id="Group-6" transform="translate(106.500000, 189.000000)">
                    <circle id="Oval" stroke="#3A2F49" stroke-width="14" fill="#FFBB2E" fill-rule="nonzero" cx="62" cy="62" r="62"></circle>
                    <g id="Group-2" transform="translate(26.000000, 26.000000)">
                        <mask id="mask-4" fill="white">
                            <use xlink:href="#path-3"></use>
                        </mask>
                        <use id="Mask" stroke="#000000" stroke-width="3" fill="#FFBB2E" xlink:href="#path-3"></use>
                        <g mask="url(#mask-4)" id="Oval" stroke="#3A2F49" stroke-width="13">
                            <circle cx="35.5" cy="35.5" r="29"></circle>
                            <circle cx="24.5119048" cy="46.4880952" r="24.5119048"></circle>
                            <circle cx="17.75" cy="54.9404762" r="15.2142857"></circle>
                        </g>
                    </g>
                </g>
                <g id="Group-6" transform="translate(0.000000, 104.687807)">
                    <circle id="Oval" stroke="#3A2F49" stroke-width="14" fill="#FFBB2E" fill-rule="nonzero" cx="73.3" cy="73.3" r="73.3"></circle>
                    <g id="Group-2" transform="translate(31.500000, 31.312193)">
                        <mask id="mask-6" fill="white">
                            <use xlink:href="#path-5"></use>
                        </mask>
                        <use id="Mask" stroke="#000000" stroke-width="3" fill="#FFBB2E" xlink:href="#path-5"></use>
                        <g mask="url(#mask-6)" id="Oval" stroke="#3A2F49" stroke-width="13">
                            <circle cx="42" cy="42" r="35.5"></circle>
                            <circle cx="29" cy="55" r="29"></circle>
                            <circle cx="21" cy="65" r="18"></circle>
                        </g>
                    </g>
                </g>
                <g id="Group-6" transform="translate(73.500000, 0.000000)">
                    <circle id="Oval" stroke="#3A2F49" stroke-width="14" fill="#FFBB2E" fill-rule="nonzero" cx="68.5" cy="68.5" r="68.5"></circle>
                    <g id="Group-2" transform="translate(29.000000, 30.000000)">
                        <mask id="mask-8" fill="white">
                            <use xlink:href="#path-7"></use>
                        </mask>
                        <use id="Mask" stroke="#000000" stroke-width="3" fill="#FFBB2E" xlink:href="#path-7"></use>
                        <g mask="url(#mask-8)" id="Oval" stroke="#3A2F49" stroke-width="13">
                            <circle cx="39" cy="39" r="32.5"></circle>
                            <circle cx="26.9285714" cy="51.0714286" r="26.9285714"></circle>
                            <circle cx="19.5" cy="60.3571429" r="16.7142857"></circle>
                        </g>
                    </g>
                </g>
            </g>
            <g id="Group-7" transform="translate(411.135010, 275.660355) rotate(-109.000000) translate(-411.135010, -275.660355) translate(295.885010, 119.160355)">
                <g id="Group-6" transform="translate(106.500000, 189.000000)">
                    <circle id="Oval" stroke="#3A2F49" stroke-width="14" fill="#FFBB2E" fill-rule="nonzero" cx="62" cy="62" r="62"></circle>
                    <g id="Group-2" transform="translate(26.000000, 26.000000)">
                        <mask id="mask-10" fill="white">
                            <use xlink:href="#path-9"></use>
                        </mask>
                        <use id="Mask" stroke="#000000" stroke-width="3" fill="#FFBB2E" xlink:href="#path-9"></use>
                        <g mask="url(#mask-10)" id="Oval" stroke="#3A2F49" stroke-width="13">
                            <circle cx="35.5" cy="35.5" r="29"></circle>
                            <circle cx="24.5119048" cy="46.4880952" r="24.5119048"></circle>
                            <circle cx="17.75" cy="54.9404762" r="15.2142857"></circle>
                        </g>
                    </g>
                </g>
                <g id="Group-6" transform="translate(0.000000, 104.687807)">
                    <circle id="Oval" stroke="#3A2F49" stroke-width="14" fill="#FFBB2E" fill-rule="nonzero" cx="73.3" cy="73.3" r="73.3"></circle>
                    <g id="Group-2" transform="translate(31.500000, 31.312193)">
                        <mask id="mask-12" fill="white">
                            <use xlink:href="#path-11"></use>
                        </mask>
                        <use id="Mask" stroke="#000000" stroke-width="3" fill="#FFBB2E" xlink:href="#path-11"></use>
                        <g mask="url(#mask-12)" id="Oval" stroke="#3A2F49" stroke-width="13">
                            <circle cx="42" cy="42" r="35.5"></circle>
                            <circle cx="29" cy="55" r="29"></circle>
                            <circle cx="21" cy="65" r="18"></circle>
                        </g>
                    </g>
                </g>
                <g id="Group-6" transform="translate(73.500000, 0.000000)">
                    <circle id="Oval" stroke="#3A2F49" stroke-width="14" fill="#FFBB2E" fill-rule="nonzero" cx="68.5" cy="68.5" r="68.5"></circle>
                    <g id="Group-2" transform="translate(29.000000, 30.000000)">
                        <mask id="mask-14" fill="white">
                            <use xlink:href="#path-13"></use>
                        </mask>
                        <use id="Mask" stroke="#000000" stroke-width="3" fill="#FFBB2E" xlink:href="#path-13"></use>
                        <g mask="url(#mask-14)" id="Oval" stroke="#3A2F49" stroke-width="13">
                            <circle cx="39" cy="39" r="32.5"></circle>
                            <circle cx="26.9285714" cy="51.0714286" r="26.9285714"></circle>
                            <circle cx="19.5" cy="60.3571429" r="16.7142857"></circle>
                        </g>
                    </g>
                </g>
            </g>
            <path d="M396.972187,118.267693 C392.972187,118.267693 389.772187,115.067693 389.772187,111.067693 L389.772187,49.5676927 C389.772187,45.5676927 392.972187,42.3676927 396.972187,42.3676927 C400.972187,42.3676927 404.172187,45.5676927 404.172187,49.5676927 L404.172187,110.967693 C404.172187,114.967693 400.972187,118.267693 396.972187,118.267693 Z" id="Path" fill="#3A2F49" fill-rule="nonzero" transform="translate(396.972187, 80.317693) rotate(-44.000000) translate(-396.972187, -80.317693) "></path>
            <path d="M281.067493,163.410833 C279.267493,163.410833 277.367493,162.710833 275.967493,161.310833 L232.467493,117.810833 C229.667493,115.010833 229.667493,110.410833 232.467493,107.610833 C235.267493,104.810833 239.867493,104.810833 242.667493,107.610833 L286.167493,151.110833 C288.967493,153.910833 288.967493,158.510833 286.167493,161.310833 C284.767493,162.710833 282.967493,163.410833 281.067493,163.410833 Z" id="Path" fill="#3A2F49" fill-rule="nonzero" transform="translate(259.317493, 134.460833) rotate(-345.000000) translate(-259.317493, -134.460833) "></path>
            <path d="M224.80429,226.808153 L163.30429,226.808153 C159.30429,226.808153 156.10429,223.608153 156.10429,219.608153 C156.10429,215.608153 159.30429,212.408153 163.30429,212.408153 L224.70429,212.408153 C228.70429,212.408153 231.90429,215.608153 231.90429,219.608153 C232.00429,223.508153 228.80429,226.808153 224.80429,226.808153 Z" id="Path" fill="#3A2F49" fill-rule="nonzero" transform="translate(194.005431, 219.608153) rotate(-345.000000) translate(-194.005431, -219.608153) "></path>
            <path d="M475.025722,69.885247 C473.225722,69.885247 471.325722,69.185247 469.925722,67.785247 C467.125722,64.985247 467.125722,60.385247 469.925722,57.585247 L513.425722,14.085247 C516.225722,11.285247 520.825722,11.285247 523.625722,14.085247 C526.425722,16.885247 526.425722,21.485247 523.625722,24.285247 L480.125722,67.785247 C478.725722,69.185247 476.825722,69.885247 475.025722,69.885247 Z" id="Path" fill="#3A2F49" fill-rule="nonzero" transform="translate(496.775722, 40.935247) rotate(-44.000000) translate(-496.775722, -40.935247) "></path>
            <path d="M625.879998,90.9420621 L564.479998,90.9420621 C560.479998,90.9420621 557.279998,87.7420621 557.279998,83.7420621 C557.279998,79.7420621 560.479998,76.5420621 564.479998,76.5420621 L625.879998,76.5420621 C629.879998,76.5420621 633.079998,79.7420621 633.079998,83.7420621 C633.079998,87.6420621 629.779998,90.9420621 625.879998,90.9420621 Z" id="Path" fill="#3A2F49" fill-rule="nonzero" transform="translate(595.179998, 83.742062) rotate(-44.000000) translate(-595.179998, -83.742062) "></path>
            <g id="Group-8" transform="translate(489.679773, 621.191691) rotate(-249.000000) translate(-489.679773, -621.191691) translate(358.672843, 563.567261)" fill="#3A2F49" fill-rule="nonzero">
                <path d="M31.5415317,118.267693 C27.5415317,118.267693 24.3415317,115.067693 24.3415317,111.067693 L24.3415317,49.5676927 C24.3415317,45.5676927 27.5415317,42.3676927 31.5415317,42.3676927 C35.5415317,42.3676927 38.7415317,45.5676927 38.7415317,49.5676927 L38.7415317,110.967693 C38.7415317,114.967693 35.5415317,118.267693 31.5415317,118.267693 Z" id="Path" transform="translate(31.541532, 80.317693) rotate(-44.000000) translate(-31.541532, -80.317693) "></path>
                <path d="M109.595066,69.885247 C107.795066,69.885247 105.895066,69.185247 104.495066,67.785247 C101.695066,64.985247 101.695066,60.385247 104.495066,57.585247 L147.995066,14.085247 C150.795066,11.285247 155.395066,11.285247 158.195066,14.085247 C160.995066,16.885247 160.995066,21.485247 158.195066,24.285247 L114.695066,67.785247 C113.295066,69.185247 111.395066,69.885247 109.595066,69.885247 Z" id="Path" transform="translate(131.345066, 40.935247) rotate(-44.000000) translate(-131.345066, -40.935247) "></path>
                <path d="M260.449342,90.9420621 L199.049342,90.9420621 C195.049342,90.9420621 191.849342,87.7420621 191.849342,83.7420621 C191.849342,79.7420621 195.049342,76.5420621 199.049342,76.5420621 L260.449342,76.5420621 C264.449342,76.5420621 267.649342,79.7420621 267.649342,83.7420621 C267.649342,87.6420621 264.349342,90.9420621 260.449342,90.9420621 Z" id="Path" transform="translate(229.749342, 83.742062) rotate(-44.000000) translate(-229.749342, -83.742062) "></path>
            </g>
        </g>
    </g>
</svg>