<?xml version="1.0" encoding="UTF-8"?>
<svg width="381px" height="386px" viewBox="0 0 381 386" version="1.1" xmlns="http://www.w3.org/2000/svg" xmlns:xlink="http://www.w3.org/1999/xlink">
    <title>Financial_piggy bank</title>
    <defs>
        <circle id="path-1" cx="42" cy="42" r="42"></circle>
    </defs>
    <g id="Page-1" stroke="none" stroke-width="1" fill="none" fill-rule="evenodd">
        <g id="Financial_piggy-bank" transform="translate(-0.000000, 0.000000)">
            <path d="M347.6,223.51414 L347.6,223.51414 L347.6,223.51414 C337,179.81414 296.7,147.71414 202,144.11414 C174.3,143.11414 152.4,145.11414 134.7,149.11414 L136.6,157.51414 C132.5,145.31414 124.2,131.01414 108,128.71414 C79,124.61414 62.2,114.61414 62.2,114.61414 C58,154.41414 83.5,181.91414 94.2,191.61414 L77.7,177.81414 C65.1,189.71414 58.1,202.01414 50.7,209.61414 C31.7,229.11414 7.2,222.01414 7.2,222.01414 L7.2,288.21414 C7.2,288.21414 26.7,287.81414 52.3,308.51414 C76.9,328.41414 98.1,330.51414 99.8,330.61414 C100.2,335.41414 100.8,340.41414 101.6,345.71414 C104.2,363.61414 101.6,380.21414 101.6,380.21414 L143.4,380.21414 C139.7,320.81414 150.1,314.21414 150.1,314.21414 L151.8,335.71414 C200.4,341.91414 265.7,335.71414 265.7,335.71414 L266.6,333.41414 C283.7,364.91414 279.9,380.31414 279.9,380.31414 L311.8,380.31414 C312.6,327.11414 348.6,308.21414 350.5,255.21414 C350.9,244.11414 350,233.51414 347.6,223.51414 Z" id="Path" fill="#FF76A4" fill-rule="nonzero"></path>
            <g id="Group" transform="translate(0.000000, 109.401232)" fill="#3A2F49" fill-rule="nonzero">
                <path d="M279.3,273.512908 C277.1,273.512908 274.9,272.612908 273.6,270.912908 C272.2,269.112908 271.7,267.012908 272.3,264.812908 C272.5,263.612908 274,249.412908 258.3,222.212908 C251.6,210.712908 247.6,196.912908 246.5,181.412908 C246.2,177.412908 249.2,174.012908 253.1,173.712908 C257,173.412908 260.5,176.412908 260.8,180.312908 C261.8,193.512908 265.2,205.512908 270.7,215.012908 C282.7,235.812908 286,250.512908 286.7,259.112908 L303.9,258.812908 C305.3,234.312908 314,216.812908 322.5,199.912908 C331.2,182.312908 339.5,165.812908 340,141.512908 C340.8,99.7129077 322.4,71.7129077 283.7,56.0129077 C280,54.5129077 278.2,50.3129077 279.7,46.6129077 C281.2,42.9129077 285.4,41.1129077 289.1,42.6129077 C333.4,60.6129077 355.3,93.9129077 354.4,141.812908 C353.9,169.312908 344.5,188.212908 335.4,206.412908 C326.5,224.312908 318.1,241.112908 318.1,266.012908 C318.1,269.912908 314.9,273.112908 311,273.212908 L279.5,273.712908 C279.4,273.512908 279.4,273.512908 279.3,273.512908 Z" id="Path"></path>
                <path d="M132,47.3129077 C128.8,47.3129077 125.8,45.1129077 125,41.8129077 C124.1,37.9129077 126.4,34.0129077 130.3,33.1129077 C137.8,31.3129077 146,29.8129077 154.5,28.8129077 C158.5,28.3129077 162,31.1129077 162.5,35.1129077 C163,39.0129077 160.2,42.6129077 156.2,43.1129077 C148.2,44.1129077 140.7,45.4129077 133.7,47.1129077 C133.2,47.2129077 132.6,47.3129077 132,47.3129077 Z" id="Path"></path>
                <path d="M100.6,227.412908 C100.5,227.412908 100.4,227.412908 100.2,227.412908 C99.2,227.412908 75.9,225.912908 48.7,204.712908 C25.7,186.812908 8.7,186.912908 8.5,186.912908 C6.6,187.012908 4.7,186.312908 3.3,184.912908 C1.9,183.612908 1.1,181.712908 1.1,179.812908 L1.42108547e-14,114.312908 C1.42108547e-14,112.012908 1,109.912908 2.8,108.512908 C4.6,107.112908 6.9,106.612908 9.1,107.212908 C9.9,107.412908 29.6,112.312908 44.8,96.2129077 C47.4,93.4129077 50.1,89.8129077 53.2,85.6129077 C58,79.0129077 63.5,71.6129077 71.2,64.1129077 C74,61.3129077 78.6,61.4129077 81.4,64.2129077 C84.2,67.0129077 84.1,71.6129077 81.3,74.4129077 C74.4,81.1129077 69.3,88.0129077 64.8,94.2129077 C61.6,98.6129077 58.5,102.712908 55.3,106.112908 C41.4,120.812908 24.8,122.812908 14.6,122.312908 L15.4,173.012908 C24,174.512908 39.5,179.012908 57.7,193.212908 C81.3,211.612908 100.8,212.812908 101,212.812908 C105,213.012908 108,216.412908 107.8,220.412908 C107.6,224.412908 104.4,227.412908 100.6,227.412908 Z" id="Path"></path>
                <path d="M193.4,233.512908 C179.2,233.512908 164.6,233.012908 151.1,231.512908 C147.1,231.112908 144.3,227.512908 144.7,223.512908 C145.1,219.512908 148.7,216.712908 152.7,217.112908 C199.4,222.312908 263.1,215.412908 263.7,215.312908 C267.7,214.912908 271.2,217.712908 271.6,221.712908 C272,225.712908 269.2,229.212908 265.2,229.612908 C263.4,229.812908 230,233.512908 193.4,233.512908 Z" id="Path"></path>
                <path d="M103,276.312908 C100.9,276.312908 99,275.412908 97.6,273.912908 C96.2,272.312908 95.6,270.212908 95.9,268.112908 C95.9,268.012908 98,252.412908 95.4,236.212908 C91.4,211.412908 91.5,191.812908 92.3,179.712908 C92.6,175.712908 96,172.712908 100,173.012908 C104,173.312908 107,176.712908 106.7,180.712908 C105.9,192.012908 105.8,210.412908 109.6,233.912908 C111.3,244.712908 111.3,255.012908 110.9,261.812908 L136.7,261.412908 C134.9,228.012908 139.9,209.412908 144.6,199.512908 C146.3,195.912908 150.6,194.412908 154.2,196.112908 C157.8,197.812908 159.3,202.112908 157.6,205.712908 C154.1,213.112908 148.6,231.012908 151.6,268.012908 C151.8,270.012908 151.1,271.912908 149.7,273.412908 C148.4,274.912908 146.5,275.712908 144.5,275.812908 L103.2,276.512908 C103.1,276.312908 103,276.312908 103,276.312908 Z" id="Path"></path>
                <path d="M97.3,93.6129077 C95.9,93.6129077 94.4,93.2129077 93.2,92.3129077 C91.4,91.0129077 48,59.7129077 52.7,6.51290774 C52.9,4.11290774 54.4,1.91290774 56.5,0.812907737 C58.7,-0.287092263 61.3,-0.287092263 63.4,0.912907737 C63.5,1.01290774 79.5,9.81290774 106.2,13.2129077 C140.2,17.5129077 145.2,63.3129077 145.4,65.2129077 C145.8,69.2129077 142.9,72.7129077 139,73.1129077 C135,73.5129077 131.5,70.6129077 131.1,66.7129077 C131.1,66.3129077 127.1,30.4129077 104.4,27.5129077 C87.8,25.4129077 75,21.4129077 66.8,18.2129077 C68.8,57.1129077 101.1,80.3129077 101.5,80.6129077 C104.7,82.9129077 105.5,87.4129077 103.2,90.6129077 C101.7,92.6129077 99.5,93.6129077 97.3,93.6129077 Z" id="Path"></path>
                <circle id="Oval" transform="translate(77.778420, 110.224248) rotate(-45.000000) translate(-77.778420, -110.224248) " cx="77.77842" cy="110.224248" r="8.99991369"></circle>
                <path d="M343.7,117.512908 C341.4,117.512908 339.2,116.412908 337.8,114.412908 C335.5,111.112908 336.4,106.612908 339.6,104.412908 C348.3,98.4129077 370,79.3129077 365.8,63.8129077 C364,57.3129077 360.5,52.6129077 355.4,50.0129077 C349.5,47.0129077 341.6,46.9129077 334.4,49.6129077 C330.7,51.0129077 326.5,49.2129077 325.1,45.5129077 C323.7,41.8129077 325.5,37.6129077 329.2,36.2129077 C340.1,32.0129077 352.4,32.3129077 361.9,37.1129077 C370.7,41.6129077 376.9,49.5129077 379.7,60.0129077 C387.4,88.5129077 349.4,115.112908 347.8,116.212908 C346.6,117.112908 345.2,117.512908 343.7,117.512908 Z" id="Path"></path>
            </g>
            <circle id="Oval" fill="#FFBB2E" fill-rule="nonzero" cx="224.5" cy="80.6141399" r="73.3"></circle>
            <g id="Group-2" transform="translate(183.000000, 39.000000)">
                <mask id="mask-2" fill="white">
                    <use xlink:href="#path-1"></use>
                </mask>
                <use id="Mask" stroke="#000000" stroke-width="3" fill="#FFBB2E" xlink:href="#path-1"></use>
                <g mask="url(#mask-2)" id="Oval" stroke="#3A2F49" stroke-width="13">
                    <circle cx="42" cy="42" r="35.5"></circle>
                    <circle cx="29" cy="55" r="29"></circle>
                    <circle cx="21" cy="65" r="18"></circle>
                </g>
            </g>
            <path d="M224.5,161.01414 C203.5,161.01414 183.7,153.01414 168.6,138.31414 C153.2,123.31414 144.5,103.31414 144.1,81.8141399 C143.8,60.3141399 151.8,40.0141399 166.7,24.5141399 C181.6,9.11413987 201.7,0.414139871 223.2,0.0141398709 C244.7,-0.385860129 265,7.71413987 280.5,22.6141399 C295.9,37.6141399 304.6,57.6141399 305,79.1141399 C305.7,123.51414 270.2,160.11414 225.8,160.81414 C225.4,161.01414 224.9,161.01414 224.5,161.01414 Z M224.5,14.5141399 C224.1,14.5141399 223.8,14.5141399 223.4,14.5141399 C205.8,14.8141399 189.3,21.9141399 177,34.6141399 C164.7,47.3141399 158.1,64.0141399 158.4,81.6141399 C158.7,99.2141399 165.8,115.71414 178.5,128.01414 C191.2,140.31414 207.9,146.91414 225.5,146.61414 C261.9,146.01414 291.1,115.91414 290.5,79.5141399 C290.2,61.9141399 283.1,45.4141399 270.4,33.1141399 C258.1,21.1141399 241.8,14.5141399 224.5,14.5141399 Z" id="Shape" fill="#3A2F49" fill-rule="nonzero"></path>
            <path d="M268.5,197.51414 C267.9,197.51414 267.3,197.41414 266.7,197.31414 C240.6,190.61414 206.1,183.81414 170.7,191.81414 C166.8,192.71414 163,190.21414 162.1,186.41414 C161.2,182.51414 163.7,178.71414 167.5,177.81414 C205.9,169.21414 242.5,176.31414 270.2,183.41414 C274,184.41414 276.4,188.31414 275.4,192.21414 C274.7,195.41414 271.7,197.51414 268.5,197.51414 Z" id="Path" fill="#3A2F49" fill-rule="nonzero"></path>
        </g>
    </g>
</svg>