<?xml version="1.0" encoding="UTF-8"?>
<svg width="382px" height="382px" viewBox="0 0 382 382" version="1.1" xmlns="http://www.w3.org/2000/svg" xmlns:xlink="http://www.w3.org/1999/xlink">
    <title>Financial_gold bars</title>
    <g id="Page-1" stroke="none" stroke-width="1" fill="none" fill-rule="evenodd">
        <g id="Financial_gold-bars" transform="translate(0.000000, 0.000000)" fill-rule="nonzero">
            <g id="Group" transform="translate(7.270000, 138.800000)" fill="#FFBB2E">
                <g transform="translate(0.000000, 157.200000)" id="Path">
                    <polygon points="122.5 78.6 -1.42108547e-14 78.6 22.6 0 99.8 0"></polygon>
                    <polygon points="244.9 78.6 122.5 78.6 145.1 0 222.3 0"></polygon>
                    <polygon points="367.4 78.6 244.9 78.6 267.6 0 344.8 0"></polygon>
                </g>
                <g transform="translate(61.200000, 78.600000)" id="Path">
                    <polygon points="122.5 78.6 0 78.6 22.7 0 99.9 0"></polygon>
                    <polygon points="245 78.6 122.5 78.6 145.1 0 222.3 0"></polygon>
                </g>
                <polygon id="Path" points="244.9 78.6 122.5 78.6 145.1 5.68434189e-14 222.3 5.68434189e-14"></polygon>
            </g>
            <g id="Group" transform="translate(0.000000, 131.600000)" fill="#3A2F49">
                <g transform="translate(0.000000, 157.200000)" id="Shape">
                    <path d="M129.77,93 L7.27,93 C4.97,93 2.87,91.9 1.47,90.1 C0.07,88.3 -0.33,86 0.27,83.8 L22.97,5.2 C23.87,2.1 26.67,0 29.87,0 L107.07,0 C110.27,0 113.07,2.1 113.97,5.2 L136.57,83.8 C137.17,86 136.77,88.3 135.37,90.1 C134.17,91.9 131.97,93 129.77,93 Z M16.87,78.6 L120.17,78.6 L101.67,14.4 L35.27,14.4 L16.87,78.6 Z"></path>
                    <path d="M252.17,93 L129.77,93 C127.47,93 125.37,91.9 123.97,90.1 C122.57,88.3 122.17,86 122.77,83.8 L145.37,5.2 C146.27,2.1 149.07,0 152.27,0 L229.47,0 C232.67,0 235.47,2.1 236.37,5.2 L258.97,83.8 C259.57,86 259.17,88.3 257.77,90.1 C256.57,91.9 254.47,93 252.17,93 Z M139.27,78.6 L242.57,78.6 L224.07,14.4 L157.67,14.4 L139.27,78.6 Z"></path>
                    <path d="M374.67,93 L252.17,93 C249.87,93 247.77,91.9 246.37,90.1 C244.97,88.3 244.57,86 245.17,83.8 L267.77,5.2 C268.67,2.1 271.47,0 274.67,0 L351.87,0 C355.07,0 357.87,2.1 358.77,5.2 L381.37,83.8 C381.97,86 381.57,88.3 380.17,90.1 C379.07,91.9 376.97,93 374.67,93 Z M261.77,78.6 L365.07,78.6 L346.57,14.4 L280.17,14.4 L261.77,78.6 Z"></path>
                </g>
                <g transform="translate(61.200000, 78.600000)" id="Shape">
                    <path d="M129.77,93 L7.27,93 C4.97,93 2.87,91.9 1.47,90.1 C0.07,88.3 -0.33,86 0.27,83.8 L22.87,5.2 C23.77,2.1 26.57,0 29.77,0 L106.97,0 C110.17,0 112.97,2.1 113.87,5.2 L136.47,83.8 C137.07,86 136.67,88.3 135.27,90.1 C134.17,91.9 132.07,93 129.77,93 Z M16.87,78.6 L120.17,78.6 L101.77,14.4 L35.37,14.4 L16.87,78.6 Z"></path>
                    <path d="M252.27,93 L129.77,93 C127.47,93 125.37,91.9 123.97,90.1 C122.57,88.3 122.17,86 122.77,83.8 L145.37,5.2 C146.27,2.1 149.07,0 152.27,0 L229.47,0 C232.67,0 235.47,2.1 236.37,5.2 L258.97,83.8 C259.57,86 259.17,88.3 257.77,90.1 C256.67,91.9 254.47,93 252.27,93 Z M139.37,78.6 L242.67,78.6 L224.17,14.4 L157.77,14.4 L139.37,78.6 Z"></path>
                </g>
                <path d="M252.17,93 L129.77,93 C127.47,93 125.37,91.9 123.97,90.1 C122.57,88.3 122.17,86 122.77,83.8 L145.37,5.2 C146.27,2.1 149.07,2.84217094e-14 152.27,2.84217094e-14 L229.47,2.84217094e-14 C232.67,2.84217094e-14 235.47,2.1 236.37,5.2 L258.97,83.8 C259.57,86 259.17,88.3 257.77,90.1 C256.57,91.9 254.47,93 252.17,93 Z M139.27,78.6 L242.57,78.6 L224.07,14.4 L157.67,14.4 L139.27,78.6 Z" id="Shape"></path>
            </g>
            <path d="M190.97,75.9 C186.97,75.9 183.77,72.7 183.77,68.7 L183.77,7.2 C183.77,3.2 186.97,0 190.97,0 C194.97,0 198.17,3.2 198.17,7.2 L198.17,68.6 C198.17,72.6 194.97,75.9 190.97,75.9 Z" id="Path" fill="#3A2F49"></path>
            <path d="M113.57,107.9 C111.77,107.9 109.87,107.2 108.47,105.8 L64.97,62.3 C62.17,59.5 62.17,54.9 64.97,52.1 C67.77,49.3 72.37,49.3 75.17,52.1 L118.67,95.6 C121.47,98.4 121.47,103 118.67,105.8 C117.27,107.2 115.47,107.9 113.57,107.9 Z" id="Path" fill="#3A2F49"></path>
            <path d="M81.57,185.3 L20.07,185.3 C16.07,185.3 12.87,182.1 12.87,178.1 C12.87,174.1 16.07,170.9 20.07,170.9 L81.47,170.9 C85.47,170.9 88.67,174.1 88.67,178.1 C88.77,182 85.57,185.3 81.57,185.3 Z" id="Path" fill="#3A2F49"></path>
            <path d="M268.37,107.9 C266.57,107.9 264.67,107.2 263.27,105.8 C260.47,103 260.47,98.4 263.27,95.6 L306.77,52.1 C309.57,49.3 314.17,49.3 316.97,52.1 C319.77,54.9 319.77,59.5 316.97,62.3 L273.47,105.8 C272.07,107.2 270.17,107.9 268.37,107.9 Z" id="Path" fill="#3A2F49"></path>
            <path d="M361.87,185.3 L300.47,185.3 C296.47,185.3 293.27,182.1 293.27,178.1 C293.27,174.1 296.47,170.9 300.47,170.9 L361.87,170.9 C365.87,170.9 369.07,174.1 369.07,178.1 C369.07,182 365.77,185.3 361.87,185.3 Z" id="Path" fill="#3A2F49"></path>
        </g>
    </g>
</svg>