<?xml version="1.0" encoding="UTF-8"?>
<svg width="223px" height="45px" viewBox="0 0 223 45" version="1.1" xmlns="http://www.w3.org/2000/svg" xmlns:xlink="http://www.w3.org/1999/xlink">
    <title>Group 3</title>
    <defs>
        <circle id="path-1" cx="22.5" cy="22.5" r="22.5"></circle>
        <circle id="path-3" cx="16.5" cy="16.5" r="16.5"></circle>
    </defs>
    <g id="Page-1" stroke="none" stroke-width="1" fill="none" fill-rule="evenodd">
        <g id="05_Index_Dark" transform="translate(-66.000000, -61.000000)">
            <g id="Header" transform="translate(66.000000, 54.000000)">
                <g id="Group-3" transform="translate(0.000000, 7.000000)">
                    <g id="Menu" transform="translate(60.680000, 13.720000)" fill="#FFFFFF" fill-rule="nonzero">
                        <g id="TWlLlGHT-ZONE">
                            <polygon id="Path" points="4.04 14.28 4.04 2.98 0 2.98 0 0.28 11.24 0.28 11.24 2.98 7.04 2.98 7.04 14.28"></polygon>
                            <path d="M16.4133655,14.28 L12.1133655,0.28 L15.2133655,0.28 L17.5133655,8.1 C17.6333655,8.48666667 17.7333655,8.89666667 17.8133655,9.33 C17.8933655,9.76333333 17.9633655,10.1666667 18.0233655,10.54 C18.0833655,10.9133333 18.1266988,11.2066667 18.1533655,11.42 L17.6533655,11.42 C17.7733655,10.8466667 17.8700321,10.3666667 17.9433655,9.98 C18.0166988,9.59333333 18.0933655,9.25333333 18.1733655,8.96 C18.2533655,8.66666667 18.3400321,8.38 18.4333655,8.1 L20.6733655,2.3 L23.1533655,2.3 L25.3333655,8.1 C25.4800321,8.5 25.6033655,8.88333333 25.7033655,9.25 C25.8033655,9.61666667 25.8866988,9.96666667 25.9533655,10.3 C26.0200321,10.6333333 26.0866988,10.9666667 26.1533655,11.3 L25.6933655,11.4 C25.7333655,11.1066667 25.7666988,10.86 25.7933655,10.66 C25.8200321,10.46 25.8400321,10.2733333 25.8533655,10.1 C25.8666988,9.92666667 25.8866988,9.75 25.9133655,9.57 C25.9400321,9.39 25.9833655,9.18 26.0433655,8.94 C26.1033655,8.7 26.1800321,8.41333333 26.2733655,8.08 L28.5533655,0.28 L31.5933655,0.28 L27.2933655,14.28 L25.0733655,14.28 L21.6133655,6 L21.9133655,6.06 L18.6933655,14.28 L16.4133655,14.28 Z" id="Path"></path>
                            <polygon id="Path" points="33.3567897 14.28 33.3567897 0.28 36.0432762 0.28 36.0432762 14.28"></polygon>
                            <polygon id="Path" points="39.3867212 14.28 39.3867212 0.28 42.3867212 0.28 42.3867212 11.58 48.7267212 11.58 48.7267212 14.28"></polygon>
                            <polygon id="Path" points="51.2101491 14.28 51.2101491 0.28 53.8966356 0.28 53.8966356 14.28"></polygon>
                            <path d="M63.6600806,14.48 C62.5667472,14.48 61.5734139,14.3 60.6800806,13.94 C59.7867472,13.58 59.0134139,13.0733333 58.3600806,12.42 C57.7067472,11.7666667 57.2034139,11 56.8500806,10.12 C56.4967472,9.24 56.3200806,8.28666667 56.3200806,7.26 C56.3200806,6.23333333 56.5034139,5.28 56.8700806,4.4 C57.2367472,3.52 57.7567472,2.75666667 58.4300806,2.11 C59.1034139,1.46333333 59.8934139,0.96 60.8000806,0.6 C61.7067472,0.24 62.7000806,0.06 63.7800806,0.06 C64.5267472,0.06 65.2400806,0.16 65.9200806,0.36 C66.6000806,0.56 67.2200806,0.833333333 67.7800806,1.18 C68.3400806,1.52666667 68.8000806,1.92666667 69.1600806,2.38 L67.3000806,4.34 C66.7800806,3.84666667 66.2267472,3.46333333 65.6400806,3.19 C65.0534139,2.91666667 64.4200806,2.78 63.7400806,2.78 C63.1134139,2.78 62.5367472,2.89 62.0100806,3.11 C61.4834139,3.33 61.0234139,3.64333333 60.6300806,4.05 C60.2367472,4.45666667 59.9300806,4.93333333 59.7100806,5.48 C59.4900806,6.02666667 59.3800806,6.62 59.3800806,7.26 C59.3800806,7.88666667 59.4967472,8.47333333 59.7300806,9.02 C59.9634139,9.56666667 60.2834139,10.0433333 60.6900806,10.45 C61.0967472,10.8566667 61.5734139,11.1766667 62.1200806,11.41 C62.6667472,11.6433333 63.2534139,11.76 63.8800806,11.76 C64.3200806,11.76 64.7367472,11.69 65.1300806,11.55 C65.5234139,11.41 65.8700806,11.22 66.1700806,10.98 C66.4700806,10.74 66.7067472,10.46 66.8800806,10.14 C67.0534139,9.82 67.1400806,9.47333333 67.1400806,9.1 L67.1400806,8.62 L67.5200806,9.18 L63.5600806,9.18 L63.5600806,6.66 L70.0000806,6.66 C70.0267472,6.80666667 70.0467472,6.98666667 70.0600806,7.2 C70.0734139,7.41333333 70.0834139,7.62 70.0900806,7.82 C70.0967472,8.02 70.1000806,8.18666667 70.1000806,8.32 C70.1000806,9.22666667 69.9400806,10.0566667 69.6200806,10.81 C69.3000806,11.5633333 68.8467472,12.2133333 68.2600806,12.76 C67.6734139,13.3066667 66.9867472,13.73 66.2000806,14.03 C65.4134139,14.33 64.5667472,14.48 63.6600806,14.48 Z" id="Path"></path>
                            <path d="M81.6000867,14.28 L81.6000867,0.28 L84.6000867,0.28 L84.6000867,14.28 L81.6000867,14.28 Z M72.7600867,14.28 L72.7600867,0.28 L75.7600867,0.28 L75.7600867,14.28 L72.7600867,14.28 Z M73.9800867,8.68 L73.9800867,5.92 L83.1200867,5.92 L83.1200867,8.68 L73.9800867,8.68 Z" id="Shape"></path>
                            <polygon id="Path" points="91.1334277 14.28 91.1334277 2.98 87.0934277 2.98 87.0934277 0.28 98.3334277 0.28 98.3334277 2.98 94.1334277 2.98 94.1334277 14.28"></polygon>
                            <polygon id="Path" points="106.306809 14.28 106.306809 12.24 113.946809 2.04 114.826809 3.06 106.826809 3.06 106.826809 0.28 117.246809 0.28 117.246809 2.3 109.646809 12.52 108.746809 11.58 117.466809 11.58 117.466809 14.28"></polygon>
                            <path d="M126.626819,14.48 C125.600152,14.48 124.650152,14.3 123.776819,13.94 C122.903486,13.58 122.150152,13.0766667 121.516819,12.43 C120.883486,11.7833333 120.390152,11.02 120.036819,10.14 C119.683486,9.26 119.506819,8.29333333 119.506819,7.24 C119.506819,6.2 119.683486,5.24 120.036819,4.36 C120.390152,3.48 120.883486,2.71333333 121.516819,2.06 C122.150152,1.40666667 122.903486,0.9 123.776819,0.54 C124.650152,0.18 125.600152,0 126.626819,0 C127.653486,0 128.596819,0.18 129.456819,0.54 C130.316819,0.9 131.066819,1.40666667 131.706819,2.06 C132.346819,2.71333333 132.843486,3.48 133.196819,4.36 C133.550152,5.24 133.726819,6.20666667 133.726819,7.26 C133.726819,8.28666667 133.550152,9.24 133.196819,10.12 C132.843486,11 132.346819,11.7666667 131.706819,12.42 C131.066819,13.0733333 130.316819,13.58 129.456819,13.94 C128.596819,14.3 127.653486,14.48 126.626819,14.48 Z M126.626819,11.64 C127.213486,11.64 127.753486,11.53 128.246819,11.31 C128.740152,11.09 129.170152,10.7833333 129.536819,10.39 C129.903486,9.99666667 130.186819,9.53333333 130.386819,9 C130.586819,8.46666667 130.686819,7.88666667 130.686819,7.26 C130.686819,6.62 130.586819,6.03333333 130.386819,5.5 C130.186819,4.96666667 129.903486,4.5 129.536819,4.1 C129.170152,3.7 128.740152,3.39 128.246819,3.17 C127.753486,2.95 127.213486,2.84 126.626819,2.84 C126.040152,2.84 125.496819,2.95 124.996819,3.17 C124.496819,3.39 124.063486,3.69666667 123.696819,4.09 C123.330152,4.48333333 123.046819,4.95 122.846819,5.49 C122.646819,6.03 122.546819,6.62 122.546819,7.26 C122.546819,8.1 122.723486,8.85 123.076819,9.51 C123.430152,10.17 123.913486,10.69 124.526819,11.07 C125.140152,11.45 125.840152,11.64 126.626819,11.64 Z" id="Shape"></path>
                            <path d="M136.440164,14.28 L136.440164,0.28 L139.120164,0.28 L146.880164,10.76 L146.340164,10.76 C146.24683,10.08 146.16683,9.40333333 146.100164,8.73 C146.033497,8.05666667 145.990164,7.34 145.970164,6.58 C145.950164,5.82 145.940164,4.97333333 145.940164,4.04 L145.940164,0.28 L148.860164,0.28 L148.860164,14.28 L146.140164,14.28 L138.240164,3.74 L138.960164,3.74 C139.053497,4.62 139.12683,5.34666667 139.180164,5.92 C139.233497,6.49333333 139.273497,6.97 139.300164,7.35 C139.32683,7.73 139.34683,8.06666667 139.360164,8.36 C139.373497,8.65333333 139.380164,8.96 139.380164,9.28 L139.380164,14.28 L136.440164,14.28 Z" id="Path"></path>
                            <path d="M152.50017,14.28 L152.50017,0.28 L161.94017,0.28 L161.94017,2.92 L155.44017,2.92 L155.44017,11.64 L162.08017,11.64 L162.08017,14.28 L152.50017,14.28 Z M153.90017,8.42 L153.90017,5.86 L160.98017,5.86 L160.98017,8.42 L153.90017,8.42 Z" id="Shape"></path>
                        </g>
                    </g>
                    <mask id="mask-2" fill="white">
                        <use xlink:href="#path-1"></use>
                    </mask>
                    <use id="Mask" fill="#FFFFFF" xlink:href="#path-1"></use>
                    <g id="Group-2" mask="url(#mask-2)">
                        <g transform="translate(6.000000, 6.000000)">
                            <mask id="mask-4" fill="white">
                                <use xlink:href="#path-3"></use>
                            </mask>
                            <use id="Mask" stroke="#000000" stroke-width="3" fill="#FFFFFF" fill-rule="evenodd" xlink:href="#path-3"></use>
                            <g id="Group-2" stroke="none" stroke-width="1" fill="none" fill-rule="evenodd" mask="url(#mask-4)">
                                <circle id="Oval" stroke="#000000" stroke-width="3" cx="16.5" cy="16.5" r="16.5"></circle>
                                <circle id="Oval" stroke="#000000" stroke-width="3" cx="12.5" cy="20.5" r="12.5"></circle>
                                <circle id="Oval" stroke="#000000" stroke-width="3" cx="8.5" cy="24.5" r="8.5"></circle>
                            </g>
                        </g>
                    </g>
                </g>
            </g>
        </g>
    </g>
</svg>